Coordinates
version=1
nRows=14
nColumns=36
inDegrees=yes

Units are S.I. units (second, meters, Newtons, ...)
If the header above contains a line with 'inDegrees', this indicates whether rotational values are in degrees (yes) or radians (no).

endheader
time	pelvis_tilt	pelvis_list	pelvis_rotation	pelvis_tx	pelvis_ty	pelvis_tz	hip_flexion_r	hip_adduction_r	hip_rotation_r	knee_angle_r	knee_angle_r_beta	ankle_angle_r	subtalar_angle_r	mtp_angle_r	hip_flexion_l	hip_adduction_l	hip_rotation_l	knee_angle_l	knee_angle_l_beta	ankle_angle_l	subtalar_angle_l	mtp_angle_l	lumbar_extension	lumbar_bending	lumbar_rotation	arm_flex_r	arm_add_r	arm_rot_r	elbow_flex_r	pro_sup_r	arm_flex_l	arm_add_l	arm_rot_l	elbow_flex_l	pro_sup_l
      3.14166670	    -12.81479676	     -0.33325968	      3.42961179	      0.12775701	      0.90236700	     -0.04471946	     31.97684872	     -6.38312893	      2.34144203	     25.55131308	      0.44595454	      8.37724816	    -26.64376239	     -7.49999987	     32.16286833	     -4.08532308	      7.28677661	     26.08569689	      0.45528130	      6.49930958	    -18.28098983	     -7.49999987	    -11.74415786	      2.27848609	      1.46039206	     17.71924502	    -16.13675477	     23.07086078	     94.60584786	     80.24520921	      8.36528890	     -5.68629150	      2.90610043	    106.57161114	     63.26104531
      3.14583330	    -12.67279832	     -0.23521811	      3.52538076	      0.12757620	      0.90575439	     -0.04487588	     31.58282539	     -6.42740325	      2.52970768	     25.09736464	      0.43803165	      8.35131896	    -26.73405955	     -7.49999987	     31.69625354	     -4.00725304	      7.19969406	     25.42821512	      0.44380608	      6.33072185	    -17.90970780	     -7.49999987	    -11.70833225	      2.23196323	      1.48976341	     17.57797782	    -15.69951527	     22.48691338	     94.00206304	     80.36674337	      8.53013976	     -5.93447867	      3.16444603	    106.16612978	     63.44394140
      3.15000000	    -12.64292154	     -0.13008524	      3.49633490	      0.13171065	      0.90281128	     -0.04938885	     31.38260744	     -6.71841278	      2.28957661	     25.04185927	      0.43706290	      8.35034826	    -26.89349429	     -7.49999987	     31.49454008	     -3.82508303	      7.03452252	     25.26870003	      0.44102201	      6.41664580	    -17.87220861	     -7.49999987	    -11.48731625	      2.30853060	      1.45594102	     17.49204381	    -15.73510201	     22.44129814	     94.00075191	     80.41490255	      8.31556488	     -5.90175672	      3.23869507	    106.05959126	     63.47443893
      3.15416670	    -12.64744405	     -0.00984897	      3.56100957	      0.13120295	      0.90285328	     -0.04904442	     31.17606550	     -6.96128080	      2.33300724	     24.88526168	      0.43432975	      7.52073342	    -28.11135212	     -7.49999987	     31.26204531	     -3.67606599	      6.84150791	     24.95874929	      0.43561235	      6.48722152	    -17.68548190	     -7.49999987	    -11.15295792	      2.30678684	      1.57377023	     17.08433217	    -15.76096017	     22.13773025	     94.04534616	     78.85000209	      8.36191457	     -6.02851104	      3.25599719	    105.43711840	     63.39029242
      3.15833330	    -12.55994842	      0.02660887	      3.42256625	      0.13117563	      0.90047672	     -0.04878755	     31.18254832	     -7.05325765	      2.25457723	     25.11040628	      0.43825927	      7.54916241	    -28.55274100	     -7.49999987	     31.27121711	     -3.58142849	      6.82850636	     25.41423551	      0.44356209	      6.71008501	    -18.24133504	     -7.49999987	    -11.12954293	      2.34758875	      1.73056785	     17.01312060	    -15.85369797	     21.95277441	     94.37850548	     78.74772959	      8.34130868	     -5.99392139	      3.38938424	    105.55920149	     63.57913741
      3.16250000	    -12.66168498	      0.17267887	      3.31758736	      0.13057229	      0.90077928	     -0.04850243	     31.42994833	     -7.18458443	      2.46694261	     25.41100472	      0.44350570	      7.44121820	    -28.99165588	     -7.49999987	     31.39982698	     -3.45245538	      6.80807481	     25.52909894	      0.44556683	      6.74403076	    -18.35244284	     -7.49999987	    -10.97361391	      2.25807104	      1.81853779	     16.85779437	    -15.93039726	     21.84413683	     94.72586077	     78.36212746	      8.36872821	     -6.29412541	      3.49950566	    105.61396552	     63.71585211
      3.16666670	    -12.78130727	      0.30436965	      3.18843313	      0.13105674	      0.90414626	     -0.04869414	     31.59964730	     -7.30445940	      2.54940589	     25.39411926	      0.44321099	      7.13432872	    -29.25145279	     -7.49999987	     31.40413201	     -3.33801193	      6.76236101	     25.36105359	      0.44263389	      6.55207845	    -18.49196802	     -7.49999987	    -10.76359361	      2.17390622	      2.02332576	     16.60651382	    -15.98430477	     21.70073860	     94.79713147	     78.06472285	      8.31745436	     -6.34349432	      3.32468384	    105.36270857	     63.84129674
      3.17083330	    -12.73144974	      0.40927026	      3.03227859	      0.13055899	      0.90410371	     -0.04836692	     31.59629193	     -7.41249186	      2.49185345	     25.42668000	      0.44377928	      6.84113871	    -29.54987590	     -7.49999987	     31.24862831	     -3.28092998	      6.70723897	     25.18784711	      0.43961086	      6.28975387	    -18.64542879	     -7.49999987	    -10.77890199	      2.14893627	      2.07788825	     16.61368523	    -15.90454019	     21.32342515	     94.65927740	     84.70594590	      8.09924061	     -6.32670164	      2.49284228	    105.18257656	     66.86280970
      3.17500000	    -12.64765516	      0.41619937	      3.14315092	      0.13078166	      0.90432977	     -0.04869235	     31.47263539	     -7.52250328	      2.27374292	     25.41975374	      0.44365840	      6.49259167	    -29.95049588	     -7.49999987	     31.04772828	     -3.19963443	      6.72133848	     24.97392921	      0.43587729	      6.30771736	    -18.60978935	     -7.49999987	    -10.74024450	      2.23775765	      2.15763921	     16.49835838	    -16.02036682	     21.25231417	     94.61408454	     84.21331105	      8.18420756	     -6.39579686	      2.32218330	    104.75257513	     66.73080512
      3.17916670	    -12.50041000	      0.38894689	      3.24935049	      0.13020706	      0.90427082	     -0.04861079	     31.30387437	     -7.50656988	      2.23603315	     25.31768695	      0.44187700	      6.47677813	    -30.03934733	     -7.49999987	     30.90719932	     -3.21501183	      6.82275738	     24.86969555	      0.43405807	      6.32223206	    -18.56308142	     -7.49999987	    -10.70091319	      2.17022829	      2.20979247	     16.43013987	    -16.13430693	     21.18499855	     94.44445785	     83.65796941	      8.12963677	     -6.43216443	      2.27700004	    104.48143140	     66.59691297
      3.18333330	    -12.42925802	      0.35581833	      3.32069883	      0.13032943	      0.90451487	     -0.04894017	     31.20326865	     -7.49138735	      1.98586268	     25.44797077	      0.44415088	      7.11018121	    -29.54608795	     -7.49999987	     30.89289045	     -3.23110364	      6.86720495	     24.92697849	      0.43505785	      6.51590047	    -18.15367471	     -7.49999987	    -10.52762156	      2.11116787	      2.25757981	     16.36625897	    -16.23733367	     21.15223649	     94.15819466	     83.27753061	      8.05586049	     -6.40952541	      2.22343379	    104.17692092	     66.49967000
      3.18750000	    -12.08680949	      0.34063806	      3.38957851	      0.12966916	      0.90496415	     -0.04880828	     30.79740763	     -7.40597253	      2.10587605	     25.28443148	      0.44129658	      6.59495009	    -29.95629854	     -7.49999987	     30.40057509	     -3.30733298	      6.78289418	     24.58975682	      0.42917222	      6.36334609	    -18.14036580	     -7.49999987	    -10.85190858	      2.03430895	      2.35776530	     16.50936162	    -16.34380885	     21.09894785	     93.91640077	     82.40636424	      8.13089705	     -6.42687692	      2.06840851	    103.95271397	     66.32079530
      3.19166670	    -11.95588889	      0.27167271	      3.51267045	      0.12971015	      0.90564372	     -0.04919632	     30.65440497	     -7.41400560	      1.89732615	     25.36149519	      0.44264159	      6.46305278	    -30.13739756	     -7.49999987	     30.20360668	     -3.39528517	      6.69616491	     24.40292521	      0.42591139	      6.29863297	    -18.01444907	     -7.49999987	    -10.87401344	      2.06318248	      2.43571539	     16.49400258	    -16.44198843	     21.00648888	     93.72721772	     82.08172762	      7.97365438	     -6.29909261	      1.86026187	    103.74516979	     66.28533297
      3.19583330	    -11.84001520	      0.33366748	      3.63441963	      0.12913021	      0.90570199	     -0.04910442	     30.49357893	     -7.59109381	      1.63666304	     25.26149229	      0.44089621	      6.23602580	    -30.21380744	     -7.49999987	     30.07674731	     -3.34334216	      6.60818902	     24.29153566	      0.42396728	      6.14708013	    -17.77498045	     -7.49999987	    -10.96882423	      1.94018213	      2.47093631	     16.49659450	    -16.43562754	     20.85943900	     93.61902919	     81.75943118	      8.02562151	     -6.18286781	      1.39808788	    103.47365488	     66.24345671
